<?xml version="1.0" encoding="utf-8"?>
<!-- Generator: Adobe Illustrator 26.0.2, SVG Export Plug-In . SVG Version: 6.00 Build 0)  -->
<svg version="1.1" xmlns="http://www.w3.org/2000/svg" xmlns:xlink="http://www.w3.org/1999/xlink" x="0px" y="0px"
	 viewBox="0 0 1864.3 1748.41" style="enable-background:new 0 0 1864.3 1748.41;" xml:space="preserve">
<style type="text/css">
	.st0{display:none;fill:#473E3B;}
	.st1{display:none;}
	.st2{display:inline;fill:#DCEAE5;}
	.st3{fill:#8E756F;}
	.st4{fill:#C35C49;}
	.st5{fill:#857A79;}
	.st6{display:none;fill:#524845;}
	.st7{fill:#524845;}
</style>
<g id="Layer_2">
</g>
<g id="Layer_1">
	<circle class="st0" cx="236.61" cy="197.12" r="143.74"/>
	<g class="st1">
		<circle class="st2" cx="236.61" cy="197.12" r="78.26"/>
	</g>
	<path class="st6" d="M0,0v1112.63c0,0,247.88-294.06,584.05-310.91c336.18-16.85,689.16,14.91,933.36-98.16
		s347.9-297.7,347.9-297.7L1864.3,0H0z"/>
	<path class="st7" d="M1866.58,730.06l-2.28-3.47v-14.26c-1.41,2.21-3.03,4.54-4.81,6.95l-11.26-17.1
		c11.77-18.2,16.07-30.91,16.07-30.91v-38.86c-23.32,49.16-73.2,101.09-73.2,101.09s-3.45,4.05-10.69,11.08l-34.94-123.16
		l-0.28,0.08c11.3-10.57,16.65-16.88,16.65-16.88c88.48-85.06,102.45-111.4,102.45-111.4v-37.39c-3.76,6.44-7.96,12.92-12.48,19.39
		l-12.31-18.7c9.7-13.62,18.62-27.71,25.81-41.75l-1.02-37.59c0,0-43.75,92.6-144.74,177.82c0,0-73,84.68-251.59,151.87l-6.6,2.3
		l0.05,0.14c-132.11,48.66-320.58,86.81-578.1,74.06c-167.54-8.3-304.78,6.19-416.07,32.01l-0.04-0.11l-0.77,0.29
		c-309.85,72.12-418.03,232.09-418.03,232.09L-1,1102.19l0.42,17.17l-11.08,8.19l23.44,31.72C4.52,1167.89,0,1173.24,0,1173.24
		v36.75c7.78-12.39,21.9-31.8,35.22-49.59l59.43,90.7c-25.22,24.87-64.44,66.37-94.65,111.19v10.48l-2.28,1.68l2.28,3.08v21.17
		c0,0,2.7-4.11,7.51-11.01l12.25,16.57c-6.97,9.41-13.64,18.98-19.76,28.58v31.05c0,0,115.76-147.43,130.64-156.5
		c299.71-353.14,864.05-285.82,864.05-285.82c70.97,3.02,136.7,2.17,197.5-1.66l4.23,0.02l0-0.28
		c463.38-30.43,636.96-235.5,636.96-235.5c17.58-17.75,30.91-39.1,30.91-39.1v-13.48L1866.58,730.06z M1730.46,602.13l-9.28-15.91
		c8.48-7.96,14.49-14.26,18.23-18.39l10.81,16.41c-8.63,7.6-13.97,11.99-13.97,11.99S1734.35,598.34,1730.46,602.13z
		 M1782.52,524.68c5.62-5.91,11.57-12.36,17.67-19.23l12.05,18.3c-6.01,6.55-12.04,12.86-17.93,18.84L1782.52,524.68z
		 M1842.11,488.43c-6.05,7.88-12.47,15.66-19.04,23.21l-12.19-18.51c6.34-7.48,12.7-15.34,18.89-23.43L1842.11,488.43z
		 M1771.56,535.99l11.63,17.66c-7.62,7.44-14.81,14.18-21.16,19.99l-11.36-17.26C1755.54,551.82,1762.84,544.82,1771.56,535.99z
		 M1726.97,637.57l35.08,123.66c-27.49,23.45-75.43,58.67-147.68,93.29l-35.21-124.14C1649.74,696.44,1697.9,661.86,1726.97,637.57z
		 M1532.95,888.81c-24.14,8.89-50.16,17.43-78.14,25.37l-35.07-123.65c53.1-15.32,99.28-32.76,139.03-50.67l35.2,124.11
		c-16.94,7.6-35.08,15.11-54.46,22.4l-6.6,2.3L1532.95,888.81z M1300.9,947.37l-47.63-120.94c52.98-7.94,101.25-18.2,145.08-29.95
		l35.05,123.56C1393.12,930.64,1349.03,939.98,1300.9,947.37z M1707.06,598.91l9.35,16.04c-5.83,5.04-12.99,10.93-21.54,17.47
		l-9.29-15.93C1693.62,610.24,1700.76,604.35,1707.06,598.91z M1670.63,627.74l8.98,15.41l3.92-2.29
		c-7.34,5.33-15.5,10.97-24.48,16.86l-9.06-15.54C1657.33,637.25,1664.21,632.42,1670.63,627.74z M1634.41,652.36l8.94,15.33
		c-8.08,4.98-16.71,10.09-25.92,15.27l-5.82-16.72C1619.6,661.57,1627.21,656.93,1634.41,652.36z M1595.19,675.6l5.71,16.4
		c-7.21,3.83-14.72,7.69-22.56,11.55l-5.57-16C1580.53,683.57,1588,679.58,1595.19,675.6z M1556.01,695.94l5.47,15.71
		c-8.56,4-17.46,7.99-26.71,11.96l-5.32-15.29C1538.63,704.22,1547.48,700.09,1556.01,695.94z M1512.36,715.75l5.23,15.03
		c-8.26,3.36-16.77,6.69-25.55,9.98l-5.11-14.69C1495.65,722.68,1504.13,719.23,1512.36,715.75z M1469.54,732.67l5.03,14.46
		c-7.73,2.74-15.65,5.44-23.76,8.11l-4.93-14.18C1453.95,738.3,1461.84,735.51,1469.54,732.67z M1428.23,746.89l4.87,13.99
		c-10.49,3.25-21.29,6.43-32.4,9.52l-2.56-14.31C1408.43,753.11,1418.46,750.04,1428.23,746.89z M1380.17,761.15l2.52,14.1
		c-7.98,2.09-16.12,4.12-24.41,6.11l-2.48-13.85C1364.07,765.45,1372.2,763.33,1380.17,761.15z M1337.71,771.89l2.45,13.68
		c-9.33,2.09-18.84,4.11-28.53,6.06l-2.41-13.44C1318.9,776.16,1328.39,774.06,1337.71,771.89z M1291,781.86l2.38,13.31
		c-8.85,1.65-17.85,3.24-26.99,4.76l-2.35-13.13C1273.17,785.22,1282.16,783.57,1291,781.86z M1245.69,789.83l2.33,13.02
		c-8.17,1.25-16.45,2.45-24.86,3.59l-2.31-12.9C1229.25,792.36,1237.53,791.12,1245.69,789.83z M1168.73,799.89
		c11.43-1.19,22.66-2.49,33.69-3.89l2.29,12.82c-11.79,1.45-23.8,2.79-36.04,4L1168.73,799.89z M1125.02,803.81
		c8.47-0.64,16.84-1.34,25.11-2.1l-0.05,12.84c-8.27,0.72-16.64,1.39-25.11,2.01L1125.02,803.81z M1077.27,806.71
		c9.85-0.46,19.56-1,29.16-1.61l-0.05,12.71c-9.59,0.59-19.32,1.09-29.16,1.53L1077.27,806.71z M1031.27,808.23
		c9.24-0.18,18.38-0.44,27.41-0.76l-0.05,12.6c-9.04,0.31-18.17,0.56-27.41,0.73L1031.27,808.23z M987.58,808.57
		c8.45,0.03,16.82,0.01,25.1-0.07l-0.05,12.55c-8.29,0.08-16.65,0.1-25.1,0.07L987.58,808.57z M942.39,807.86
		c8.95,0.25,17.83,0.43,26.61,0.56l-0.05,12.55c-9.12-0.12-18.32-0.31-27.63-0.56L942.39,807.86z M898.72,805.74
		c8.92,0.61,13.74,1.07,13.74,1.07c3.79,0.16,7.56,0.3,11.33,0.44l-1.07,12.58c-8.29-0.3-16.67-0.66-25.1-1.06L898.72,805.74z
		 M851,803.5c11.08,0.32,20.85,0.73,29.16,1.15l-1.13,13.27c-9.83-0.41-19.56-0.73-29.18-0.97L851,803.5z M804.89,802.84
		c9.71,0,18.89,0.08,27.49,0.23l-1.15,13.53c-9.26-0.13-18.43-0.19-27.5-0.18L804.89,802.84z M761,803.44
		c8.7-0.23,17.12-0.39,25.24-0.49l-1.16,13.6c-8.5,0.11-16.91,0.29-25.24,0.53L761,803.44z M742.29,804.05l-1.17,13.67
		c-10.37,0.42-20.6,0.95-30.69,1.56l-1.68-13.61C720.27,805,731.47,804.46,742.29,804.05z M694.2,841.85l59.97,122.13
		c-60.92,3.97-116.61,11.22-167.43,20.84l3.22-1.58l-57.78-117.67C589.45,853.34,644.46,846.02,694.2,841.85z M690.18,806.86
		l1.68,13.67c-8.45,0.62-16.79,1.31-25.04,2.06l-1.7-13.78C673.61,808.09,681.97,807.44,690.18,806.86z M646.61,810.52l1.71,13.9
		c-9.8,1.03-19.45,2.15-28.96,3.35l-1.74-14.14C627.41,812.48,637.08,811.45,646.61,810.52z M599.17,815.9l1.76,14.33
		c-9.17,1.3-18.21,2.67-27.11,4.13l-1.81-14.66C581.15,818.33,590.21,817.06,599.17,815.9z M553.65,822.56l1.84,14.93
		c-8.36,1.49-16.6,3.06-24.72,4.69l-1.89-15.35C537.18,825.31,545.44,823.9,553.65,822.56z M510.58,830.3l1.93,15.69
		c-10.53,2.29-20.84,4.68-30.93,7.17l-5.87-15.47C487.38,835.03,499.01,832.58,510.58,830.3z M457.46,841.98l6,15.81
		c-8.24,2.18-16.34,4.43-24.29,6.74l-6.19-16.3C441.15,846.05,449.31,843.97,457.46,841.98z M415,853.21l6.33,16.68
		c-9.46,2.94-18.71,5.95-27.75,9.05l-6.57-17.31C396.32,858.68,405.66,855.88,415,853.21z M369.33,867.42l6.72,17.72
		c-8.75,3.19-17.29,6.44-25.62,9.75l-6.96-18.33C352.06,873.38,360.68,870.33,369.33,867.42z M337.5,926.71l55.7,113.43
		c-60.97,24.32-110.73,51.73-150.49,78.16l-53.54-109.03C236.5,975.81,286.6,948.67,337.5,926.71z M326.12,883.19l7.11,18.75
		c-7.87,3.32-15.54,6.68-23.02,10.09l-7.32-19.3C310.59,889.44,318.33,886.26,326.12,883.19z M285.86,900.24l7.47,19.69
		c-9.02,4.35-17.75,8.75-26.18,13.18l-7.69-20.27C268.18,908.48,276.98,904.28,285.86,900.24z M242.84,921.43l7.82,20.6
		c-8.04,4.47-15.78,8.96-23.25,13.46l-11.09-19.2C225.05,931.14,233.89,926.19,242.84,921.43z M200.43,945.94l11.17,19.34
		c-7.75,4.93-15.17,9.86-22.27,14.75l-12.61-18.5C184.51,956.17,192.41,950.97,200.43,945.94z M161.58,972.33l12.59,18.47
		c-7.03,5.13-13.69,10.21-20.02,15.2l-12.51-18.36C148.18,982.39,154.83,977.29,161.58,972.33z M127.28,999.57l12.41,18.2
		c-7.99,6.71-15.33,13.21-22.04,19.43l-12.18-17.87C112.57,1012.54,119.84,1005.95,127.28,999.57z M92.04,1032.62l12.02,17.63
		c-5.34,5.31-10.16,10.34-14.49,15.02l-11.83-17.36C82.41,1042.72,87.17,1037.61,92.04,1032.62z M65.14,1062.45l11.72,17.19
		c-12.2,14.47-17.76,23.25-17.76,23.25c-0.37,0.44-0.74,0.88-1.1,1.32l-13.16-17.81c1.65-1.81,2.57-2.78,2.57-2.78
		C52.82,1076.39,59.41,1069.34,65.14,1062.45z M11.39,1127.16c7.7-10.32,14.9-19.24,20.81-26.28l13.41,18.14
		c-7.63,9.11-14.94,17.81-21.4,25.49L11.39,1127.16z M50.17,1140.63c9.3-12.17,16.27-21.11,17.26-22.38
		c31.99-36.3,66.82-68,103.53-95.68l53.25,108.44c-66.42,47.24-100.51,89.03-109.5,100.9c-0.88,0.81-1.86,1.72-2.94,2.72
		L50.17,1140.63z M104.26,1274.22l14.39,19.47c-5.82,5.6-13.47,13.09-22.22,22.03l-14.62-19.79
		C89.11,1288.34,96.64,1281.01,104.26,1274.22z M83.22,1329.43c-5.73,6.06-11.74,12.56-17.88,19.4L51.43,1330
		c5.52-6.64,11.34-13.4,17.36-20.1L83.22,1329.43z M18.99,1371.64c5.74-7.83,12.57-16.91,20.23-26.58l13.45,18.19
		c-7.04,8.18-14.11,16.72-21.03,25.49L18.99,1371.64z M132.06,1280.27l-13.4-18.13c0.08-0.06,0.16-0.12,0.23-0.18l0.05,0.18
		c0.14-0.19,0.29-0.37,0.44-0.56c0.19-0.15,0.38-0.3,0.56-0.44v-0.28c5.21-6.68,11.34-12.43,16.73-18.9l11.72,17.19
		C139.71,1269.46,134.41,1276.85,132.06,1280.27z M161.1,1244.79l-11.83-17.36c4.68-5.2,9.45-10.31,14.31-15.3l12.02,17.63
		C170.25,1235.07,165.43,1240.1,161.1,1244.79z M189.19,1216.71L177,1198.84c7.11-6.79,14.38-13.38,21.81-19.76l12.41,18.2
		C203.23,1203.99,195.89,1210.49,189.19,1216.71z M225.69,1185.51l-12.51-18.36c6.54-5.25,13.19-10.35,19.94-15.31l12.59,18.47
		C238.68,1175.44,232.01,1180.51,225.69,1185.51z M260.87,1159.55l-12.61-18.5c7.79-5.38,15.7-10.57,23.71-15.6l11.17,19.34
		C275.38,1149.73,267.96,1154.65,260.87,1159.55z M298.94,1135l-11.09-19.2c8.73-5.14,17.58-10.09,26.52-14.86l7.82,20.6
		C314.15,1126.01,306.41,1130.5,298.94,1135z M338.69,1112.63l-7.69-20.27c8.72-4.37,17.52-8.57,26.4-12.6l7.47,19.69
		C355.84,1103.79,347.12,1108.19,338.69,1112.63z M381.75,1091.54l-7.32-19.3c7.7-3.29,15.45-6.48,23.23-9.54l7.11,18.75
		C396.9,1084.77,389.23,1088.13,381.75,1091.54z M421.97,1074.4l-6.96-18.33c8.58-3.18,17.2-6.23,25.85-9.14l6.72,17.72
		C438.84,1067.83,430.3,1071.09,421.97,1074.4z M465.12,1058.46l-6.57-17.31c9.31-2.95,18.65-5.75,27.99-8.42l6.33,16.69
		C483.4,1052.34,474.15,1055.36,465.12,1058.46z M510.71,1044.04l-6.19-16.3c8.16-2.18,16.33-4.27,24.48-6.25l6,15.81
		C526.76,1039.48,518.66,1041.73,510.71,1044.04z M538.74,994.78l-0.77,0.29c-45.41,10.57-86.65,23.2-123.97,37.06l-55.97-113.98
		c50.73-20.44,101.99-35.94,151.86-47.6l57.94,117.99c-9.87,2.03-19.56,4.14-29.05,6.34L538.74,994.78z M553.12,1032.67l-5.87-15.47
		c11.67-2.65,23.3-5.11,34.87-7.39l1.93,15.69C573.53,1027.78,563.22,1030.17,553.12,1032.67z M602.31,1021.68l-1.89-15.35
		c8.3-1.51,16.56-2.93,24.77-4.27l1.84,14.93C618.66,1018.49,610.42,1020.06,602.31,1021.68z M645.36,1013.86l-1.81-14.66
		c9.13-1.36,18.19-2.63,27.15-3.79l1.76,14.33C663.3,1011.03,654.27,1012.41,645.36,1013.86z M690.9,1007.27l-1.74-14.14
		c9.8-1.15,19.46-2.18,28.99-3.11l1.71,13.9C710.06,1004.95,700.41,1006.07,690.9,1007.27z M738.36,1002.11l-1.7-13.78
		c8.48-0.73,16.84-1.38,25.05-1.95l1.68,13.67C754.95,1000.67,746.61,1001.35,738.36,1002.11z M812.66,997.23
		c-10.37,0.42-20.6,0.95-30.69,1.56l-1.68-13.61c11.51-0.67,22.71-1.21,33.54-1.62L812.66,997.23z M856.61,996.06
		c-8.5,0.11-16.91,0.29-25.24,0.53l1.16-13.64c8.7-0.23,17.12-0.39,25.24-0.49L856.61,996.06z M778.23,962.59l-60.17-122.54
		c69.5-4.64,126.94-3.28,163.17-1.28l60.65,123.52C883.69,959.79,829.19,960.05,778.23,962.59z M902.77,996.1
		c-9.26-0.13-18.43-0.19-27.5-0.18l1.16-13.57c9.71,0,18.89,0.08,27.49,0.23L902.77,996.1z M950.57,997.43
		c-9.83-0.41-19.56-0.73-29.18-0.97l1.15-13.46c11.08,0.32,20.85,0.73,29.16,1.15L950.57,997.43z M994.25,999.34
		c-8.29-0.3-16.67-0.66-25.1-1.06l1.11-13.03c8.92,0.61,13.74,1.07,13.74,1.07c3.79,0.16,7.56,0.3,11.33,0.44L994.25,999.34z
		 M1040.48,1000.47c-9.12-0.12-18.32-0.31-27.63-0.56l1.07-12.55c8.95,0.25,17.83,0.43,26.61,0.56L1040.48,1000.47z
		 M1084.17,1000.57c-8.29,0.08-16.65,0.1-25.1,0.07l0.05-12.56c8.45,0.03,16.82,0.01,25.1-0.07L1084.17,1000.57z M963.95,963.3
		l2.55-1.25L906.82,840.5c10.6,0.87,16.33,1.55,16.33,1.55c48.83,2.08,95.19,2.32,139.16,1.03l59.42,121
		C1072.33,965.94,1019.78,965.82,963.95,963.3z M1130.17,999.58c-9.04,0.31-18.17,0.55-27.41,0.73l0.05-12.58
		c9.24-0.18,18.38-0.44,27.41-0.76L1130.17,999.58z M1177.92,997.32c-9.59,0.59-19.32,1.09-29.16,1.53l0.05-12.63
		c9.85-0.46,19.56-1,29.16-1.61L1177.92,997.32z M1143.26,963.14l2.21-1.09l-58.85-119.86c11.51-0.5,22.86-1.1,34.03-1.81l4.23,0.02
		l0-0.28c37.1-2.44,72.34-6,105.78-10.48l47.66,121.01C1236.29,956.43,1191.31,960.72,1143.26,963.14z M1221.62,994.06
		c-8.27,0.72-16.64,1.39-25.11,2.01l0.05-12.75c8.47-0.64,16.84-1.34,25.11-2.1L1221.62,994.06z M1240.21,992.33l0.05-12.93
		c11.43-1.19,22.66-2.49,33.69-3.89l2.29,12.82C1264.46,989.77,1252.45,991.11,1240.21,992.33z M1294.7,985.95l-2.31-12.9
		c8.4-1.18,16.67-2.42,24.84-3.71l2.33,13.02C1311.39,983.61,1303.11,984.81,1294.7,985.95z M1337.92,979.44l-2.35-13.13
		c9.13-1.58,18.13-3.22,26.96-4.93l2.38,13.31C1356.06,976.33,1347.07,977.92,1337.92,979.44z M1383.16,971.14l-2.41-13.44
		c9.68-2.02,19.18-4.13,28.49-6.3l2.45,13.68C1402.37,967.17,1392.86,969.19,1383.16,971.14z M1429.82,960.88l-2.48-13.85
		c8.27-2.07,16.39-4.19,24.36-6.36l2.52,14.1C1446.25,956.85,1438.11,958.89,1429.82,960.88z M1472.24,949.91l-2.56-14.31
		c10.29-2.99,20.32-6.06,30.09-9.2l4.87,13.99C1494.14,943.65,1483.34,946.82,1472.24,949.91z M1522.35,934.74l-4.93-14.18
		c8.07-2.75,15.96-5.55,23.66-8.39l5.03,14.46C1538.38,929.38,1530.46,932.08,1522.35,934.74z M1563.57,920.28l-5.11-14.69
		c8.72-3.4,17.2-6.84,25.43-10.32l5.23,15.03C1580.86,913.66,1572.35,916.99,1563.57,920.28z M1606.31,903.12l-5.32-15.29
		c9.18-4.1,18.03-8.23,26.56-12.38l5.47,15.71C1624.45,895.16,1615.56,899.15,1606.31,903.12z M1649.87,883.07l-5.57-16
		c7.76-3.99,15.23-7.98,22.42-11.96l5.71,16.4C1665.23,875.34,1657.71,879.2,1649.87,883.07z M1688.97,862.47l-5.82-16.72
		c7.99-4.68,15.59-9.32,22.8-13.89l8.94,15.33C1706.81,852.19,1698.18,857.29,1688.97,862.47z M1730.58,837.23l-9.06-15.54
		c7.34-4.93,14.22-9.76,20.64-14.44l8.98,15.41l3.92-2.29C1747.73,825.69,1739.57,831.34,1730.58,837.23z M1766.4,811.93
		l-9.29-15.93c8.04-6.25,15.18-12.14,21.48-17.58l9.35,16.04C1782.12,799.49,1774.96,805.38,1766.4,811.93z M1849.4,731.92
		c-6.38,7.53-13.42,15.19-19.87,21.95l-10.26-15.58c7.59-7.79,14.03-15.42,19.46-22.57L1849.4,731.92z M1801.99,781.64l-9.28-15.91
		c6.71-6.3,11.87-11.56,15.6-15.53l10,15.18c-6.27,6.3-10.52,10.36-10.52,10.36S1805.89,777.85,1801.99,781.64z"/>
</g>
</svg>
