<?xml version="1.0" encoding="utf-8"?>
<!-- Generator: Adobe Illustrator 26.5.0, SVG Export Plug-In . SVG Version: 6.00 Build 0)  -->
<svg version="1.1" id="Layer_1" xmlns="http://www.w3.org/2000/svg" xmlns:xlink="http://www.w3.org/1999/xlink" x="0px" y="0px"
	 viewBox="0 0 1865.3 2750.8" style="enable-background:new 0 0 1865.3 2750.8;" xml:space="preserve">
<style type="text/css">
	.st0{display:none;fill:#3A352A;}
	.st1{display:none;}
	.st2{display:inline;fill:#3A352A;}
	.st3{fill:#3A352A;}
</style>
<g id="Layer_2_00000047034948237257990490000013334790348553832100_">
</g>
<g>
	<g id="Layer_1_00000033351072035712824490000014972088248609610642_">
		<circle class="st0" cx="236.6" cy="1640.6" r="143.7"/>
		<g class="st1">
			<circle class="st2" cx="236.6" cy="1640.6" r="78.3"/>
		</g>
		<g class="st1">
			<path class="st2" d="M1761.8,2048.1l-25.6-8.4c0,0-1.9,2.1-5.8,5.9l-9.3-15.9c15.7-14.7,23-23.8,23-23.8l-24.6-8.4
				c0,0-73,85.7-251.6,152.9l-6.6,2.3l0.1,0.1c-132.1,48.7-320.6,86.8-578.1,74.1c-167.5-8.3-304.8,6.2-416.1,32l0-0.1l-0.8,0.3
				c-309.9,72.1-418,232.1-418,232.1v36c5.4-7.2,11-14.3,16.7-21.2l11.7,17.2c-12.2,14.5-17.8,23.2-17.8,23.2v25
				c299.7-353.1,864-285.8,864-285.8c71,3,136.7,2.2,197.5-1.7l4.2,0v-0.3C1588.3,2253.2,1761.8,2048.1,1761.8,2048.1z
				 M1716.4,2058.4c-5.8,5-13,10.9-21.5,17.5l-9.3-15.9c8-6.2,15.2-12.1,21.5-17.6L1716.4,2058.4z M1529.4,2151.8
				c9.2-4.1,18-8.2,26.6-12.4l5.5,15.7c-8.6,4-17.5,8-26.7,12L1529.4,2151.8z M1517.6,2174.3c-8.3,3.4-16.8,6.7-25.6,10l-5.1-14.7
				c8.7-3.4,17.2-6.8,25.4-10.3L1517.6,2174.3z M1572.8,2131c7.8-4,15.2-8,22.4-12l5.7,16.4c-7.2,3.8-14.7,7.7-22.6,11.5
				L1572.8,2131z M1611.6,2109.7c8-4.7,15.6-9.3,22.8-13.9l8.9,15.3c-8.1,5-16.7,10.1-25.9,15.3L1611.6,2109.7z M1650,2085.6
				c7.3-4.9,14.2-9.8,20.6-14.4l9,15.4l3.9-2.3c-7.3,5.3-15.5,11-24.5,16.9L1650,2085.6z M1474.6,2190.6c-7.7,2.7-15.7,5.4-23.8,8.1
				l-4.9-14.2c8.1-2.8,16-5.5,23.7-8.4L1474.6,2190.6z M1220.9,2237c8.4-1.2,16.7-2.4,24.8-3.7l2.3,13c-8.2,1.2-16.4,2.4-24.9,3.6
				L1220.9,2237z M1204.7,2252.3c-11.8,1.5-23.8,2.8-36,4l0.1-12.9c11.4-1.2,22.7-2.5,33.7-3.9L1204.7,2252.3z M1264,2230.3
				c9.1-1.6,18.1-3.2,27-4.9l2.4,13.3c-8.8,1.6-17.8,3.2-27,4.8L1264,2230.3z M1309.2,2221.7c9.7-2,19.2-4.1,28.5-6.3l2.4,13.7
				c-9.3,2.1-18.8,4.1-28.5,6.1L1309.2,2221.7z M1355.8,2211c8.3-2.1,16.4-4.2,24.4-6.4l2.5,14.1c-8,2.1-16.1,4.1-24.4,6.1
				L1355.8,2211z M1398.1,2199.6c10.3-3,20.3-6.1,30.1-9.2l4.9,14c-10.5,3.2-21.3,6.4-32.4,9.5L1398.1,2199.6z M1077.3,2250.2
				c9.8-0.5,19.6-1,29.2-1.6l-0.1,12.7c-9.6,0.6-19.3,1.1-29.2,1.5L1077.3,2250.2z M1058.6,2263.5c-9,0.3-18.2,0.6-27.4,0.7
				l0.1-12.6c9.2-0.2,18.4-0.4,27.4-0.8L1058.6,2263.5z M969,2251.9l0,12.6c-9.1-0.1-18.3-0.3-27.6-0.6l1.1-12.6
				C951.3,2251.6,960.2,2251.8,969,2251.9z M923.8,2250.7l-1.1,12.6c-8.3-0.3-16.7-0.7-25.1-1.1l1.1-13c8.9,0.6,13.7,1.1,13.7,1.1
				C916.3,2250.4,920,2250.6,923.8,2250.7z M879,2261.4c-9.8-0.4-19.6-0.7-29.2-1l1.1-13.4c11.1,0.3,20.8,0.7,29.2,1.1L879,2261.4z
				 M572,2263.2c9.1-1.4,18.2-2.6,27.2-3.8l1.8,14.3c-9.2,1.3-18.2,2.7-27.1,4.1L572,2263.2z M555.5,2281
				c-8.4,1.5-16.6,3.1-24.7,4.7l-1.9-15.4c8.3-1.5,16.6-2.9,24.8-4.3L555.5,2281z M617.6,2257.1c9.8-1.1,19.5-2.2,29-3.1l1.7,13.9
				c-9.8,1-19.5,2.2-29,3.4L617.6,2257.1z M665.1,2252.3c8.5-0.7,16.8-1.4,25-1.9l1.7,13.7c-8.5,0.6-16.8,1.3-25,2.1L665.1,2252.3z
				 M708.8,2249.1c11.5-0.7,22.7-1.2,33.5-1.6l-1.2,13.7c-10.4,0.4-20.6,0.9-30.7,1.6L708.8,2249.1z M761,2246.9
				c8.7-0.2,17.1-0.4,25.2-0.5l-1.2,13.6c-8.5,0.1-16.9,0.3-25.2,0.5L761,2246.9z M510.6,2273.8l1.9,15.7
				c-10.5,2.3-20.8,4.7-30.9,7.2l-5.9-15.5C487.4,2278.5,499,2276,510.6,2273.8z M141.6,2431.1c6.5-5.2,13.2-10.3,19.9-15.3
				l12.6,18.5c-7,5.1-13.7,10.2-20,15.2L141.6,2431.1z M139.7,2461.2c-8,6.7-15.3,13.2-22,19.4l-12.2-17.9
				c7.1-6.8,14.4-13.4,21.8-19.8L139.7,2461.2z M176.7,2405c7.8-5.4,15.7-10.6,23.7-15.6l11.2,19.3c-7.8,4.9-15.2,9.9-22.3,14.8
				L176.7,2405z M216.3,2379.8c8.7-5.1,17.6-10.1,26.5-14.9l7.8,20.6c-8,4.5-15.8,9-23.2,13.5L216.3,2379.8z M259.5,2356.3
				c8.7-4.4,17.5-8.6,26.4-12.6l7.5,19.7c-9,4.3-17.8,8.8-26.2,13.2L259.5,2356.3z M302.9,2336.2c7.7-3.3,15.5-6.5,23.2-9.5
				l7.1,18.8c-7.9,3.3-15.5,6.7-23,10.1L302.9,2336.2z M343.5,2320c8.6-3.2,17.2-6.2,25.9-9.1l6.7,17.7c-8.8,3.2-17.3,6.4-25.6,9.8
				L343.5,2320z M387,2305.1c9.3-2.9,18.6-5.8,28-8.4l6.3,16.7c-9.5,2.9-18.7,5.9-27.8,9.1L387,2305.1z M433,2291.7
				c8.2-2.2,16.3-4.3,24.5-6.2l6,15.8c-8.2,2.2-16.3,4.4-24.3,6.7L433,2291.7z M89.6,2508.7l-11.8-17.4c4.7-5.2,9.4-10.3,14.3-15.3
				l12,17.6C98.7,2499,93.9,2504.1,89.6,2508.7z M803.7,2259.9l1.2-13.6c9.7,0,18.9,0.1,27.5,0.2l-1.2,13.5
				C822,2259.9,812.8,2259.9,803.7,2259.9z M987.5,2264.6l0-12.6c8.5,0,16.8,0,25.1-0.1l0,12.5
				C1004.3,2264.6,996,2264.6,987.5,2264.6z M1125,2247.3c8.5-0.6,16.8-1.3,25.1-2.1l-0.1,12.8c-8.3,0.7-16.6,1.4-25.1,2
				L1125,2247.3z"/>
			<path class="st2" d="M1833.4,2227.6l-25.6-8.4c0,0-1.9,2.1-5.8,5.9l-9.3-15.9c15.7-14.7,23-23.8,23-23.8l-24.6-8.4
				c0,0-73,85.7-251.6,152.9l-6.6,2.3l0.1,0.1c-132.1,48.7-320.6,86.8-578.1,74.1c-167.5-8.3-304.8,6.2-416.1,32l0-0.1l-0.8,0.3
				c-309.9,72.1-418,232.1-418,232.1v36c5.4-7.2,11-14.3,16.7-21.2l11.7,17.2c-12.2,14.5-17.8,23.2-17.8,23.2v25
				c299.7-353.1,864-285.8,864-285.8c71,3,136.7,2.2,197.5-1.7l4.2,0v-0.3C1659.8,2432.7,1833.4,2227.6,1833.4,2227.6z
				 M1787.9,2237.9c-5.8,5-13,10.9-21.5,17.5l-9.3-15.9c8-6.2,15.2-12.1,21.5-17.6L1787.9,2237.9z M1601,2331.3
				c9.2-4.1,18-8.2,26.6-12.4l5.5,15.7c-8.6,4-17.5,8-26.7,12L1601,2331.3z M1589.1,2353.8c-8.3,3.4-16.8,6.7-25.6,10l-5.1-14.7
				c8.7-3.4,17.2-6.8,25.4-10.3L1589.1,2353.8z M1644.3,2310.5c7.8-4,15.2-8,22.4-12l5.7,16.4c-7.2,3.8-14.7,7.7-22.6,11.5
				L1644.3,2310.5z M1683.2,2289.2c8-4.7,15.6-9.3,22.8-13.9l8.9,15.3c-8.1,5-16.7,10.1-25.9,15.3L1683.2,2289.2z M1721.5,2265.2
				c7.3-4.9,14.2-9.8,20.6-14.4l9,15.4l3.9-2.3c-7.3,5.3-15.5,11-24.5,16.9L1721.5,2265.2z M1546.1,2370.1
				c-7.7,2.7-15.7,5.4-23.8,8.1l-4.9-14.2c8.1-2.8,16-5.5,23.7-8.4L1546.1,2370.1z M1292.4,2416.5c8.4-1.2,16.7-2.4,24.8-3.7l2.3,13
				c-8.2,1.2-16.4,2.4-24.9,3.6L1292.4,2416.5z M1276.2,2431.8c-11.8,1.5-23.8,2.8-36,4l0.1-12.9c11.4-1.2,22.7-2.5,33.7-3.9
				L1276.2,2431.8z M1335.6,2409.8c9.1-1.6,18.1-3.2,27-4.9l2.4,13.3c-8.8,1.6-17.8,3.2-27,4.8L1335.6,2409.8z M1380.8,2401.2
				c9.7-2,19.2-4.1,28.5-6.3l2.4,13.7c-9.3,2.1-18.8,4.1-28.5,6.1L1380.8,2401.2z M1427.3,2390.5c8.3-2.1,16.4-4.2,24.4-6.4
				l2.5,14.1c-8,2.1-16.1,4.1-24.4,6.1L1427.3,2390.5z M1469.7,2379.1c10.3-3,20.3-6.1,30.1-9.2l4.9,14c-10.5,3.2-21.3,6.4-32.4,9.5
				L1469.7,2379.1z M1148.8,2429.7c9.8-0.5,19.6-1,29.2-1.6l-0.1,12.7c-9.6,0.6-19.3,1.1-29.2,1.5L1148.8,2429.7z M1130.2,2443
				c-9,0.3-18.2,0.6-27.4,0.7l0.1-12.6c9.2-0.2,18.4-0.4,27.4-0.8L1130.2,2443z M1040.5,2431.4l-0.1,12.6
				c-9.1-0.1-18.3-0.3-27.6-0.6l1.1-12.6C1022.9,2431.1,1031.8,2431.3,1040.5,2431.4z M995.3,2430.2l-1.1,12.6
				c-8.3-0.3-16.7-0.7-25.1-1.1l1.1-13c8.9,0.6,13.7,1.1,13.7,1.1C987.8,2429.9,991.6,2430.1,995.3,2430.2z M950.6,2440.9
				c-9.8-0.4-19.6-0.7-29.2-1l1.2-13.5c11.1,0.3,20.8,0.7,29.2,1.1L950.6,2440.9z M643.6,2442.7c9.1-1.4,18.2-2.6,27.2-3.8l1.8,14.3
				c-9.2,1.3-18.2,2.7-27.1,4.1L643.6,2442.7z M627,2460.5c-8.4,1.5-16.6,3.1-24.7,4.7l-1.9-15.4c8.3-1.5,16.6-2.9,24.8-4.3
				L627,2460.5z M689.2,2436.6c9.8-1.1,19.5-2.2,29-3.1l1.7,13.9c-9.8,1-19.5,2.2-29,3.4L689.2,2436.6z M736.7,2431.8
				c8.5-0.7,16.8-1.4,25-1.9l1.7,13.7c-8.5,0.6-16.8,1.3-25,2.1L736.7,2431.8z M780.3,2428.6c11.5-0.7,22.7-1.2,33.5-1.6l-1.2,13.7
				c-10.4,0.4-20.6,0.9-30.7,1.6L780.3,2428.6z M832.5,2426.4c8.7-0.2,17.1-0.4,25.2-0.5l-1.2,13.6c-8.5,0.1-16.9,0.3-25.2,0.5
				L832.5,2426.4z M582.1,2453.3l1.9,15.7c-10.5,2.3-20.8,4.7-30.9,7.2l-5.9-15.5C558.9,2458,570.5,2455.6,582.1,2453.3z
				 M213.2,2610.6c6.5-5.2,13.2-10.3,19.9-15.3l12.6,18.5c-7,5.1-13.7,10.2-20,15.2L213.2,2610.6z M211.2,2640.7
				c-8,6.7-15.3,13.2-22,19.4l-12.2-17.9c7.1-6.8,14.4-13.4,21.8-19.8L211.2,2640.7z M248.3,2584.5c7.8-5.4,15.7-10.6,23.7-15.6
				l11.2,19.3c-7.8,4.9-15.2,9.9-22.3,14.8L248.3,2584.5z M287.9,2559.3c8.7-5.1,17.6-10.1,26.5-14.9l7.8,20.6
				c-8,4.5-15.8,9-23.2,13.5L287.9,2559.3z M331,2535.8c8.7-4.4,17.5-8.6,26.4-12.6l7.5,19.7c-9,4.3-17.8,8.8-26.2,13.2L331,2535.8z
				 M374.4,2515.7c7.7-3.3,15.5-6.5,23.2-9.5l7.1,18.8c-7.9,3.3-15.5,6.7-23,10.1L374.4,2515.7z M415,2499.5
				c8.6-3.2,17.2-6.2,25.9-9.1l6.7,17.7c-8.8,3.2-17.3,6.4-25.6,9.8L415,2499.5z M458.5,2484.6c9.3-2.9,18.6-5.8,28-8.4l6.3,16.7
				c-9.5,2.9-18.7,5.9-27.8,9.1L458.5,2484.6z M504.5,2471.2c8.2-2.2,16.3-4.3,24.5-6.2l6,15.8c-8.2,2.2-16.3,4.4-24.3,6.7
				L504.5,2471.2z M161.1,2688.3l-11.8-17.4c4.7-5.2,9.4-10.3,14.3-15.3l12,17.6C170.2,2678.5,165.4,2683.6,161.1,2688.3z
				 M875.3,2439.4l1.2-13.6c9.7,0,18.9,0.1,27.5,0.2l-1.2,13.5C893.5,2439.4,884.3,2439.4,875.3,2439.4z M1059.1,2444.1l0.1-12.6
				c8.4,0,16.8,0,25.1-0.1l-0.1,12.5C1075.9,2444.1,1067.5,2444.1,1059.1,2444.1z M1196.6,2426.8c8.5-0.6,16.8-1.3,25.1-2.1
				l-0.1,12.8c-8.3,0.7-16.6,1.4-25.1,2L1196.6,2426.8z"/>
			
				<rect x="194.1" y="2436.1" transform="matrix(0.8976 -0.4408 0.4408 0.8976 -1085.5941 347.5024)" class="st2" width="22.2" height="148.6"/>
			
				<rect x="365" y="2349.2" transform="matrix(0.8976 -0.4408 0.4408 0.8976 -1029.7557 413.9293)" class="st2" width="22.2" height="148.6"/>
			
				<rect x="536.2" y="2290.5" transform="matrix(0.8976 -0.4408 0.4408 0.8976 -986.3904 483.385)" class="st2" width="22.2" height="148.6"/>
			
				<rect x="725.6" y="2272.2" transform="matrix(0.8976 -0.4408 0.4408 0.8976 -958.9237 565.0053)" class="st2" width="22.2" height="148.6"/>
			
				<rect x="912.7" y="2269.3" transform="matrix(0.8976 -0.4408 0.4408 0.8976 -938.489 647.1943)" class="st2" width="22.2" height="148.6"/>
			
				<rect x="1091.7" y="2269.3" transform="matrix(0.8976 -0.4408 0.4408 0.8976 -920.163 726.0781)" class="st2" width="22.2" height="148.6"/>
			
				<rect x="1252.9" y="2253.2" transform="matrix(0.9304 -0.3665 0.3665 0.9304 -765.0714 625.226)" class="st2" width="22.2" height="148.6"/>
			
				<rect x="1416.2" y="2227.1" transform="matrix(0.962 -0.2729 0.2729 0.962 -573.9111 476.886)" class="st2" width="22.2" height="148.6"/>
			
				<rect x="1575.7" y="2167.3" transform="matrix(0.962 -0.2729 0.2729 0.962 -551.5101 518.1371)" class="st2" width="22.2" height="148.6"/>
			
				<rect x="1743.9" y="2065.1" transform="matrix(0.962 -0.2729 0.2729 0.962 -517.2331 560.1695)" class="st2" width="22.2" height="148.6"/>
		</g>
		<path class="st3" d="M0,1443.5v1112.6c0,0,247.9-294.1,584-310.9c336.2-16.9,689.2,14.9,933.4-98.2
			c244.2-113.1,347.9-297.7,347.9-297.7l-1-405.9H0z"/>
	</g>
	<rect class="st3" width="1865.3" height="1544.9"/>
</g>
</svg>
