<?xml version="1.0" encoding="utf-8"?>
<!-- Generator: Adobe Illustrator 26.0.2, SVG Export Plug-In . SVG Version: 6.00 Build 0)  -->
<svg version="1.1" xmlns="http://www.w3.org/2000/svg" xmlns:xlink="http://www.w3.org/1999/xlink" x="0px" y="0px"
	 viewBox="0 0 1864.3 1748.41" style="enable-background:new 0 0 1864.3 1748.41;" xml:space="preserve">
<style type="text/css">
	.st0{display:none;fill:#3A352A;}
	.st1{display:none;}
	.st2{display:inline;fill:#3A352A;}
	.st3{fill:#3A352A;}
	.st4{fill:#3A352A;}
	.st5{fill:#3A352A;}
	.st6{display:inline;fill:#3A352A;}
	.st7{fill:#3A352A;}
</style>
<g id="Layer_2">
</g>
<g id="Layer_1">
	<circle class="st0" cx="236.61" cy="197.12" r="143.74"/>
	<g class="st1">
		<circle class="st2" cx="236.61" cy="197.12" r="78.26"/>
	</g>
	<g class="st1">
		<path class="st6" d="M1761.85,604.62l-25.59-8.39c0,0-1.9,2.11-5.8,5.9l-9.28-15.91c15.69-14.72,22.97-23.83,22.97-23.83
			l-24.59-8.39c0,0-73,85.68-251.59,152.87l-6.6,2.3l0.05,0.14c-132.11,48.66-320.58,86.81-578.1,74.06
			c-167.54-8.3-304.78,6.19-416.07,32.01l-0.04-0.11l-0.77,0.29c-309.85,72.12-418.03,232.09-418.03,232.09v35.98
			c5.41-7.25,11-14.3,16.73-21.18l11.72,17.19c-12.2,14.47-17.76,23.25-17.76,23.25v24.98
			c299.71-353.14,864.05-285.82,864.05-285.82c70.97,3.02,136.7,2.17,197.5-1.66l4.23,0.02l0-0.28
			C1588.26,809.69,1761.85,604.62,1761.85,604.62z M1716.41,614.95c-5.83,5.04-12.99,10.93-21.54,17.47l-9.29-15.93
			c8.04-6.25,15.18-12.14,21.48-17.58L1716.41,614.95z M1529.45,708.32c9.18-4.1,18.03-8.23,26.56-12.38l5.47,15.71
			c-8.56,4-17.46,7.99-26.71,11.96L1529.45,708.32z M1517.59,730.79c-8.26,3.36-16.77,6.69-25.55,9.98l-5.11-14.69
			c8.72-3.4,17.2-6.84,25.43-10.32L1517.59,730.79z M1572.77,687.56c7.76-3.99,15.23-7.98,22.42-11.96l5.71,16.4
			c-7.21,3.83-14.72,7.69-22.56,11.55L1572.77,687.56z M1611.61,666.25c7.99-4.68,15.59-9.32,22.8-13.89l8.94,15.33
			c-8.07,4.98-16.71,10.09-25.92,15.27L1611.61,666.25z M1649.99,642.18c7.34-4.93,14.22-9.76,20.64-14.44l8.98,15.41l3.92-2.29
			c-7.34,5.33-15.5,10.97-24.48,16.86L1649.99,642.18z M1474.57,747.13c-7.73,2.74-15.65,5.44-23.76,8.11l-4.93-14.18
			c8.07-2.75,15.96-5.55,23.66-8.39L1474.57,747.13z M1220.86,793.54c8.4-1.18,16.67-2.42,24.84-3.71l2.33,13.02
			c-8.17,1.25-16.45,2.45-24.86,3.59L1220.86,793.54z M1204.71,808.82c-11.79,1.45-23.8,2.79-36.04,4l0.05-12.93
			c11.43-1.19,22.66-2.49,33.69-3.89L1204.71,808.82z M1264.03,786.79c9.13-1.58,18.13-3.22,26.96-4.93l2.38,13.31
			c-8.85,1.65-17.85,3.24-26.99,4.76L1264.03,786.79z M1309.22,778.19c9.68-2.02,19.18-4.13,28.49-6.3l2.45,13.68
			c-9.33,2.09-18.84,4.11-28.53,6.06L1309.22,778.19z M1355.81,767.51c8.27-2.07,16.39-4.19,24.36-6.36l2.52,14.1
			c-7.98,2.09-16.12,4.12-24.41,6.11L1355.81,767.51z M1398.14,756.09c10.29-2.99,20.32-6.06,30.09-9.2l4.87,13.99
			c-10.49,3.25-21.29,6.43-32.4,9.52L1398.14,756.09z M1077.27,806.71c9.85-0.46,19.56-1,29.16-1.61l-0.05,12.71
			c-9.59,0.59-19.32,1.09-29.16,1.53L1077.27,806.71z M1058.63,820.07c-9.04,0.31-18.17,0.55-27.41,0.73l0.05-12.58
			c9.24-0.18,18.38-0.44,27.41-0.76L1058.63,820.07z M968.99,808.41l-0.05,12.55c-9.12-0.12-18.32-0.31-27.63-0.56l1.07-12.55
			C951.34,808.1,960.22,808.29,968.99,808.41z M923.79,807.25l-1.07,12.58c-8.29-0.3-16.67-0.66-25.1-1.06l1.11-13.03
			c8.92,0.61,13.74,1.07,13.74,1.07C916.26,806.97,920.02,807.11,923.79,807.25z M879.03,817.92c-9.83-0.41-19.56-0.73-29.18-0.97
			L851,803.5c11.08,0.32,20.85,0.73,29.16,1.15L879.03,817.92z M572.02,819.69c9.13-1.36,18.19-2.63,27.15-3.79l1.76,14.33
			c-9.17,1.3-18.21,2.67-27.11,4.13L572.02,819.69z M555.49,837.49c-8.36,1.49-16.6,3.06-24.72,4.69l-1.89-15.35
			c8.3-1.51,16.56-2.93,24.77-4.27L555.49,837.49z M617.62,813.62c9.8-1.15,19.46-2.18,28.99-3.11l1.71,13.9
			c-9.8,1.03-19.45,2.15-28.96,3.35L617.62,813.62z M665.13,808.81c8.48-0.73,16.84-1.38,25.05-1.95l1.68,13.67
			c-8.45,0.62-16.79,1.31-25.04,2.06L665.13,808.81z M708.76,805.67c11.51-0.67,22.71-1.21,33.54-1.62l-1.17,13.67
			c-10.37,0.42-20.6,0.95-30.69,1.56L708.76,805.67z M761,803.44c8.7-0.23,17.12-0.39,25.24-0.49l-1.16,13.6
			c-8.5,0.11-16.91,0.29-25.24,0.53L761,803.44z M510.58,830.3l1.93,15.69c-10.53,2.29-20.84,4.68-30.93,7.17l-5.87-15.47
			C487.38,835.03,499.01,832.58,510.58,830.3z M141.64,987.64c6.54-5.25,13.19-10.35,19.94-15.31l12.59,18.47
			c-7.03,5.13-13.69,10.21-20.02,15.2L141.64,987.64z M139.69,1017.77c-7.99,6.71-15.33,13.21-22.04,19.43l-12.18-17.87
			c7.11-6.79,14.38-13.38,21.81-19.76L139.69,1017.77z M176.72,961.54c7.79-5.38,15.7-10.57,23.71-15.6l11.17,19.34
			c-7.75,4.93-15.17,9.86-22.27,14.75L176.72,961.54z M216.32,936.29c8.73-5.14,17.58-10.09,26.52-14.86l7.82,20.6
			c-8.04,4.47-15.78,8.96-23.25,13.46L216.32,936.29z M259.46,912.85c8.72-4.37,17.52-8.57,26.4-12.6l7.47,19.69
			c-9.02,4.35-17.75,8.75-26.18,13.18L259.46,912.85z M302.89,892.73c7.7-3.29,15.45-6.48,23.23-9.54l7.11,18.75
			c-7.87,3.32-15.54,6.68-23.02,10.09L302.89,892.73z M343.48,876.56c8.58-3.18,17.2-6.23,25.85-9.14l6.72,17.72
			c-8.75,3.19-17.29,6.44-25.62,9.75L343.48,876.56z M387.01,861.63c9.31-2.95,18.65-5.75,27.99-8.42l6.33,16.68
			c-9.46,2.94-18.71,5.95-27.75,9.05L387.01,861.63z M432.99,848.23c8.16-2.18,16.33-4.27,24.48-6.25l6,15.81
			c-8.24,2.18-16.34,4.43-24.29,6.74L432.99,848.23z M89.56,1065.28l-11.83-17.36c4.68-5.2,9.45-10.31,14.31-15.3l12.02,17.63
			C98.72,1055.56,93.89,1060.59,89.56,1065.28z M803.74,816.42l1.16-13.57c9.71,0,18.89,0.08,27.49,0.23l-1.15,13.53
			C821.97,816.46,812.8,816.4,803.74,816.42z M987.53,821.12l0.05-12.56c8.45,0.03,16.82,0.01,25.1-0.07l-0.05,12.55
			C1004.35,821.13,995.98,821.16,987.53,821.12z M1125.02,803.81c8.47-0.64,16.84-1.34,25.11-2.1l-0.05,12.84
			c-8.27,0.72-16.64,1.39-25.11,2.01L1125.02,803.81z"/>
		<path class="st6" d="M1833.38,784.13l-25.59-8.39c0,0-1.9,2.11-5.8,5.9l-9.28-15.91c15.69-14.72,22.97-23.83,22.97-23.83
			l-24.59-8.39c0,0-73,85.68-251.59,152.87l-6.6,2.3l0.05,0.14c-132.11,48.66-320.58,86.81-578.1,74.06
			c-167.54-8.3-304.78,6.19-416.07,32.01l-0.04-0.11l-0.77,0.29c-309.85,72.12-418.03,232.09-418.03,232.09v35.98
			c5.41-7.25,11-14.3,16.73-21.18l11.72,17.19c-12.2,14.47-17.76,23.25-17.76,23.25v24.98
			c299.71-353.14,864.05-285.82,864.05-285.82c70.97,3.02,136.7,2.17,197.5-1.66l4.23,0.02l0-0.28
			C1659.8,989.2,1833.38,784.13,1833.38,784.13z M1787.95,794.46c-5.83,5.04-12.99,10.93-21.54,17.47l-9.29-15.93
			c8.04-6.25,15.18-12.14,21.48-17.58L1787.95,794.46z M1600.99,887.83c9.18-4.1,18.03-8.23,26.56-12.38l5.47,15.71
			c-8.56,4-17.46,7.99-26.71,11.96L1600.99,887.83z M1589.12,910.3c-8.26,3.36-16.77,6.69-25.55,9.98l-5.11-14.69
			c8.72-3.4,17.2-6.84,25.43-10.32L1589.12,910.3z M1644.31,867.07c7.76-3.99,15.23-7.98,22.42-11.96l5.71,16.4
			c-7.21,3.83-14.72,7.69-22.56,11.55L1644.31,867.07z M1683.15,845.76c7.99-4.68,15.59-9.32,22.8-13.89l8.94,15.33
			c-8.07,4.98-16.71,10.09-25.92,15.27L1683.15,845.76z M1721.53,821.69c7.34-4.93,14.22-9.76,20.64-14.44l8.98,15.41l3.92-2.29
			c-7.34,5.33-15.5,10.97-24.48,16.86L1721.53,821.69z M1546.11,926.64c-7.73,2.74-15.65,5.44-23.76,8.11l-4.93-14.18
			c8.07-2.75,15.96-5.55,23.66-8.39L1546.11,926.64z M1292.39,973.05c8.4-1.18,16.67-2.42,24.84-3.71l2.33,13.02
			c-8.17,1.25-16.45,2.45-24.86,3.59L1292.39,973.05z M1276.25,988.33c-11.79,1.45-23.8,2.79-36.04,4l0.05-12.93
			c11.43-1.19,22.66-2.49,33.69-3.89L1276.25,988.33z M1335.57,966.3c9.13-1.58,18.13-3.22,26.96-4.93l2.38,13.31
			c-8.85,1.65-17.85,3.24-26.99,4.76L1335.57,966.3z M1380.76,957.7c9.68-2.02,19.18-4.13,28.49-6.3l2.45,13.68
			c-9.33,2.09-18.84,4.11-28.53,6.06L1380.76,957.7z M1427.34,947.02c8.27-2.07,16.39-4.19,24.36-6.36l2.52,14.1
			c-7.98,2.09-16.12,4.12-24.41,6.11L1427.34,947.02z M1469.68,935.6c10.29-2.99,20.32-6.06,30.09-9.2l4.87,13.99
			c-10.49,3.25-21.29,6.43-32.4,9.52L1469.68,935.6z M1148.81,986.22c9.85-0.46,19.56-1,29.16-1.61l-0.05,12.71
			c-9.59,0.59-19.32,1.09-29.16,1.53L1148.81,986.22z M1130.17,999.58c-9.04,0.31-18.17,0.55-27.41,0.73l0.05-12.58
			c9.24-0.18,18.38-0.44,27.41-0.76L1130.17,999.58z M1040.53,987.92l-0.05,12.55c-9.12-0.12-18.32-0.31-27.63-0.56l1.07-12.55
			C1022.88,987.61,1031.75,987.8,1040.53,987.92z M995.32,986.76l-1.07,12.58c-8.29-0.3-16.67-0.66-25.1-1.06l1.11-13.03
			c8.92,0.61,13.74,1.07,13.74,1.07C987.79,986.48,991.56,986.62,995.32,986.76z M950.57,997.43c-9.83-0.41-19.56-0.73-29.18-0.97
			l1.15-13.46c11.08,0.32,20.85,0.73,29.16,1.15L950.57,997.43z M643.56,999.2c9.13-1.36,18.19-2.63,27.15-3.79l1.76,14.33
			c-9.17,1.3-18.21,2.67-27.11,4.13L643.56,999.2z M627.02,1017c-8.36,1.49-16.6,3.06-24.72,4.69l-1.89-15.35
			c8.3-1.51,16.56-2.93,24.77-4.27L627.02,1017z M689.16,993.13c9.8-1.15,19.46-2.18,28.99-3.11l1.71,13.9
			c-9.8,1.03-19.45,2.15-28.96,3.35L689.16,993.13z M736.66,988.32c8.48-0.73,16.84-1.38,25.05-1.95l1.68,13.67
			c-8.45,0.62-16.79,1.31-25.04,2.06L736.66,988.32z M780.29,985.18c11.51-0.67,22.71-1.21,33.54-1.62l-1.17,13.67
			c-10.37,0.42-20.6,0.95-30.69,1.56L780.29,985.18z M832.53,982.95c8.7-0.23,17.12-0.39,25.24-0.49l-1.16,13.6
			c-8.5,0.11-16.91,0.29-25.24,0.53L832.53,982.95z M582.12,1009.81l1.93,15.69c-10.53,2.29-20.84,4.68-30.93,7.17l-5.87-15.47
			C558.92,1014.54,570.55,1012.09,582.12,1009.81z M213.18,1167.15c6.54-5.25,13.19-10.35,19.94-15.31l12.59,18.47
			c-7.03,5.13-13.69,10.21-20.02,15.2L213.18,1167.15z M211.22,1197.28c-7.99,6.71-15.33,13.21-22.04,19.43L177,1198.84
			c7.11-6.79,14.38-13.38,21.81-19.76L211.22,1197.28z M248.26,1141.05c7.79-5.38,15.7-10.57,23.71-15.6l11.17,19.34
			c-7.75,4.93-15.17,9.86-22.27,14.75L248.26,1141.05z M287.85,1115.8c8.73-5.14,17.58-10.09,26.52-14.86l7.82,20.6
			c-8.04,4.47-15.78,8.96-23.25,13.46L287.85,1115.8z M331,1092.36c8.72-4.37,17.52-8.57,26.4-12.6l7.47,19.69
			c-9.02,4.35-17.75,8.75-26.18,13.18L331,1092.36z M374.42,1072.24c7.7-3.29,15.45-6.48,23.23-9.54l7.11,18.75
			c-7.87,3.32-15.54,6.68-23.02,10.09L374.42,1072.24z M415.01,1056.07c8.58-3.18,17.2-6.23,25.85-9.14l6.72,17.72
			c-8.75,3.19-17.29,6.44-25.62,9.75L415.01,1056.07z M458.55,1041.14c9.31-2.95,18.65-5.75,27.99-8.42l6.33,16.68
			c-9.46,2.94-18.71,5.95-27.75,9.05L458.55,1041.14z M504.52,1027.74c8.16-2.18,16.33-4.27,24.48-6.25l6,15.81
			c-8.24,2.18-16.34,4.43-24.29,6.74L504.52,1027.74z M161.1,1244.79l-11.83-17.36c4.68-5.2,9.45-10.31,14.31-15.3l12.02,17.63
			C170.25,1235.07,165.43,1240.1,161.1,1244.79z M875.27,995.93l1.16-13.57c9.71,0,18.89,0.08,27.49,0.23l-1.15,13.53
			C893.5,995.97,884.34,995.91,875.27,995.93z M1059.07,1000.63l0.05-12.56c8.45,0.03,16.82,0.01,25.1-0.07l-0.05,12.55
			C1075.88,1000.64,1067.52,1000.67,1059.07,1000.63z M1196.56,983.32c8.47-0.64,16.84-1.34,25.11-2.1l-0.05,12.84
			c-8.27,0.72-16.64,1.39-25.11,2.01L1196.56,983.32z"/>
		
			<rect x="194.04" y="992.7" transform="matrix(0.8976 -0.4408 0.4408 0.8976 -449.2868 199.6508)" class="st6" width="22.2" height="148.61"/>
		
			<rect x="364.95" y="905.73" transform="matrix(0.8976 -0.4408 0.4408 0.8976 -393.46 266.0768)" class="st6" width="22.2" height="148.61"/>
		
			<rect x="536.14" y="847.12" transform="matrix(0.8976 -0.4408 0.4408 0.8976 -350.1025 335.5321)" class="st6" width="22.2" height="148.61"/>
		
			<rect x="725.56" y="828.82" transform="matrix(0.8976 -0.4408 0.4408 0.8976 -322.6428 417.144)" class="st6" width="22.2" height="148.61"/>
		
			<rect x="912.69" y="825.94" transform="matrix(0.8976 -0.4408 0.4408 0.8976 -302.2165 499.326)" class="st6" width="22.2" height="148.61"/>
		
			<rect x="1091.65" y="825.94" transform="matrix(0.8976 -0.4408 0.4408 0.8976 -283.8949 578.2076)" class="st6" width="22.2" height="148.61"/>
		
			<rect x="1252.93" y="809.76" transform="matrix(0.9304 -0.3665 0.3665 0.9304 -236.0429 524.7269)" class="st6" width="22.2" height="148.61"/>
		
			<rect x="1416.24" y="783.73" transform="matrix(0.962 -0.2729 0.2729 0.962 -179.9765 422.0798)" class="st6" width="22.2" height="148.61"/>
		
			<rect x="1575.73" y="723.83" transform="matrix(0.962 -0.2729 0.2729 0.962 -157.5756 463.3303)" class="st6" width="22.2" height="148.61"/>
		
			<rect x="1743.97" y="621.63" transform="matrix(0.962 -0.2729 0.2729 0.962 -123.3019 505.3617)" class="st6" width="22.2" height="148.61"/>
	</g>
	<path class="st7" d="M0,0v1112.63c0,0,247.88-294.06,584.05-310.91c336.18-16.85,689.16,14.91,933.36-98.16
		s347.9-297.7,347.9-297.7L1864.3,0H0z"/>
</g>
</svg>
