<?xml version="1.0" encoding="utf-8"?>
<!-- Generator: Adobe Illustrator 26.0.2, SVG Export Plug-In . SVG Version: 6.00 Build 0)  -->
<svg version="1.1" xmlns="http://www.w3.org/2000/svg" xmlns:xlink="http://www.w3.org/1999/xlink" x="0px" y="0px"
	 viewBox="0 0 900 900" style="enable-background:new 0 0 900 900;" xml:space="preserve">
<style type="text/css">
	.st0{display:none;fill:#473E3B;}
	.st1{display:none;}
	.st2{display:inline;fill:#DCEAE5;}
	.st3{fill:#8E756F;}
	.st4{fill:#C35C49;}
	.st5{fill:#857A79;}
	.st6{fill:#524845;}
</style>
<g id="Layer_2">
</g>
<g id="Layer_1">
	<g>
		<path class="st3" d="M419.88,404.46c-6.95,0-12.59,5.64-12.59,12.6c0,6.95,5.64,12.58,12.59,12.58c6.95,0,12.59-5.63,12.59-12.58
			C432.47,410.1,426.83,404.46,419.88,404.46z M419.88,404.46c-6.95,0-12.59,5.64-12.59,12.6c0,6.95,5.64,12.58,12.59,12.58
			c6.95,0,12.59-5.63,12.59-12.58C432.47,410.1,426.83,404.46,419.88,404.46z M419.88,404.46c-6.95,0-12.59,5.64-12.59,12.6
			c0,6.95,5.64,12.58,12.59,12.58c6.95,0,12.59-5.63,12.59-12.58C432.47,410.1,426.83,404.46,419.88,404.46z"/>
		<path class="st3" d="M419.89,233.02c-105.27,0-190.62,85.35-190.62,190.62s85.35,190.62,190.62,190.62s190.62-85.35,190.62-190.62
			S525.16,233.02,419.89,233.02z M568.3,385.23c0,27.12-21.99,49.11-49.11,49.11c-27.12,0-49.11-21.99-49.11-49.11
			s21.99-49.11,49.11-49.11C546.31,336.12,568.3,358.11,568.3,385.23z M419.63,445.16h0.25c0.75,0,1.49,0.08,2.19,0.23
			C421.28,445.25,420.47,445.17,419.63,445.16z M420.25,438.77c-12,0-21.72-9.72-21.72-21.71c0-12,9.72-21.72,21.72-21.72
			c11.99,0,21.72,9.72,21.72,21.72C441.97,429.05,432.24,438.77,420.25,438.77z M503.9,278.84c11.8,0,21.37,9.57,21.37,21.36
			c0,11.8-9.57,21.38-21.37,21.38c-11.79,0-21.36-9.58-21.36-21.38C482.54,288.41,492.11,278.84,503.9,278.84z M420.97,265.65
			c27.12,0,49.11,21.99,49.11,49.1c0,27.12-21.99,49.11-49.11,49.11s-49.1-21.99-49.1-49.11
			C371.87,287.64,393.85,265.65,420.97,265.65z M335.11,278.84c11.8,0,21.37,9.57,21.37,21.36c0,11.8-9.57,21.38-21.37,21.38
			s-21.36-9.58-21.36-21.38C313.75,288.41,323.31,278.84,335.11,278.84z M322.77,336.12c27.12,0,49.1,21.99,49.1,49.11
			s-21.98,49.11-49.1,49.11s-49.11-21.99-49.11-49.11S295.65,336.12,322.77,336.12z M283.02,482.79c-11.8,0-21.37-9.57-21.37-21.37
			s9.57-21.36,21.37-21.36s21.36,9.56,21.36,21.36S294.82,482.79,283.02,482.79z M359.55,548.51c-27.12,0-49.1-21.98-49.1-49.1
			c0-27.12,21.98-49.11,49.1-49.11c27.13,0,49.11,21.99,49.11,49.11C408.66,526.53,386.68,548.51,359.55,548.51z M420.97,581.64
			c-11.8,0-21.36-9.57-21.36-21.37s9.56-21.37,21.36-21.37s21.38,9.57,21.38,21.37S432.77,581.64,420.97,581.64z M482.54,548.51
			c-27.12,0-49.1-21.98-49.1-49.1c0-27.12,21.98-49.11,49.1-49.11s49.1,21.99,49.1,49.11C531.64,526.53,509.66,548.51,482.54,548.51
			z M556.76,482.79c-11.8,0-21.36-9.57-21.36-21.37s9.56-21.36,21.36-21.36c11.8,0,21.37,9.56,21.37,21.36
			S568.56,482.79,556.76,482.79z"/>
		<g>
			<path class="st3" d="M432.47,417.06c0,6.95-5.64,12.59-12.59,12.59c-6.95,0-12.59-5.64-12.59-12.59
				c0-6.96,5.64-12.59,12.59-12.59C426.83,404.46,432.47,410.1,432.47,417.06z"/>
			<path class="st3" d="M432.47,417.06c0,6.95-5.64,12.59-12.59,12.59c-6.95,0-12.59-5.64-12.59-12.59
				c0-6.96,5.64-12.59,12.59-12.59C426.83,404.46,432.47,410.1,432.47,417.06z"/>
		</g>
	</g>
</g>
</svg>
